<?xml version="1.0" encoding="UTF-8" standalone="no"?>
<!-- Generator: Adobe Illustrator 21.1.0, SVG Export Plug-In . SVG Version: 6.00 Build 0)  -->

<svg
   version="1.1"
   id="Icons"
   x="0px"
   y="0px"
   viewBox="0 0 48 48"
   xml:space="preserve"
   sodipodi:docname="soth-full.svg"
   inkscape:version="1.3.2 (091e20e, 2023-11-25)"
   inkscape:export-filename="soth.svg"
   inkscape:export-xdpi="1894.385"
   inkscape:export-ydpi="1894.385"
   style="enable-background:new 0 0 48 48;"
   xmlns:inkscape="http://www.inkscape.org/namespaces/inkscape"
   xmlns:sodipodi="http://sodipodi.sourceforge.net/DTD/sodipodi-0.dtd"
   xmlns="http://www.w3.org/2000/svg"
   xmlns:svg="http://www.w3.org/2000/svg"><defs
   id="defs2">
	
	
	
	
	
	
	
	
	
	
	
	
	
	
</defs><sodipodi:namedview
   id="namedview2"
   pagecolor="#ffffff"
   bordercolor="#000000"
   borderopacity="0.25"
   inkscape:showpageshadow="2"
   inkscape:pageopacity="0.0"
   inkscape:pagecheckerboard="0"
   inkscape:deskcolor="#d1d1d1"
   inkscape:zoom="19.764726"
   inkscape:cx="24.91813"
   inkscape:cy="23.02081"
   inkscape:window-width="1800"
   inkscape:window-height="1097"
   inkscape:window-x="0"
   inkscape:window-y="44"
   inkscape:window-maximized="1"
   inkscape:current-layer="layer1" />
<style
   type="text/css"
   id="style1">
	.st0{fill:#724F3D;}
	.st1{fill:#A86C4D;}
	.st2{fill:none;stroke:#45413C;stroke-linecap:round;stroke-linejoin:round;stroke-miterlimit:10;}
	.st3{fill:#FF87AF;}
	.st4{fill:#FF6196;}
	.st5{fill:#FFE500;stroke:#45413C;stroke-linecap:round;stroke-linejoin:round;stroke-miterlimit:10;}
	.st6{fill:#45413C;stroke:#45413C;stroke-linecap:round;stroke-linejoin:round;stroke-miterlimit:10;}
	.st7{fill:#FF6242;}
	.st8{fill:#FFA694;}
	.st9{fill:#FFAA54;}
	.st10{fill:#00B8F0;}
	.st11{fill:#009FD9;}
	.st12{fill:#FFE500;}
	.st13{fill:#EBCB00;}
	.st14{fill:#9CEB60;}
	.st15{fill:#6DD627;}
	.st16{fill:#724F3D;stroke:#45413C;stroke-linecap:round;stroke-linejoin:round;stroke-miterlimit:10;}
	.st17{fill:#BF8DF2;}
	.st18{fill:#9F5AE5;}
	.st19{fill:#00DFEB;}
	.st20{fill:#00C9D4;}
	.st21{fill:#FF866E;}
	.st22{fill:#00F5BC;}
	.st23{fill:#00DBA8;}
	.st24{fill:#FF8A14;}
	.st25{fill:#DE926A;}
	.st26{fill:#FFCEBF;stroke:#45413C;stroke-linecap:round;stroke-linejoin:round;stroke-miterlimit:10;}
	.st27{fill:#FFB59E;}
	.st28{fill:#FFCEBF;}
	.st29{fill:#A86C4D;stroke:#45413C;stroke-linecap:round;stroke-linejoin:round;stroke-miterlimit:10;}
	.st30{fill:#ADC4D9;stroke:#45413C;stroke-linecap:round;stroke-linejoin:round;stroke-miterlimit:10;}
	.st31{fill:#FFF48C;}
	.st32{fill:#C0DCEB;stroke:#45413C;stroke-linecap:round;stroke-linejoin:round;stroke-miterlimit:10;}
	.st33{fill:#4ACFFF;}
	.st34{fill:#45413C;}
	.st35{fill:#FFDCD1;}
	.st36{opacity:0.15;fill:#45413C;}
	.st37{fill:#FFB59E;stroke:#45413C;stroke-linecap:round;stroke-linejoin:round;stroke-miterlimit:10;}
	.st38{fill:#00DFEB;stroke:#45413C;stroke-linecap:round;stroke-linejoin:round;stroke-miterlimit:10;}
	.st39{fill:#F0F0F0;stroke:#45413C;stroke-linecap:round;stroke-linejoin:round;stroke-miterlimit:10;}
	.st40{fill:#E0366F;}
	.st41{fill:#FFE8E0;}
	.st42{fill:#EBCB00;stroke:#45413C;stroke-linecap:round;stroke-linejoin:round;stroke-miterlimit:10;}
	.st43{fill:#FFDA8F;}
	.st44{fill:#FFBE3D;}
	.st45{fill:#FFE9BD;}
	.st46{fill:#FFFFFF;}
	.st47{fill:#E0E0E0;}
	.st48{fill:#656769;}
	.st49{fill:#525252;}
	.st50{fill:#87898C;}
	.st51{fill:#656769;stroke:#45413C;stroke-linecap:round;stroke-linejoin:round;stroke-miterlimit:10;}
	.st52{fill:#B89558;}
	.st53{fill:#947746;}
	.st54{fill:#525252;stroke:#45413C;stroke-linecap:round;stroke-linejoin:round;stroke-miterlimit:10;}
	.st55{fill:#FFFFFF;stroke:#45413C;stroke-linecap:round;stroke-linejoin:round;stroke-miterlimit:10;}
	.st56{fill:#A6FBFF;stroke:#45413C;stroke-linecap:round;stroke-linejoin:round;stroke-miterlimit:10;}
</style>

<g
   inkscape:groupmode="layer"
   id="layer1"
   inkscape:label="Layer 1"
   inkscape:export-filename="soth.svg"
   inkscape:export-xdpi="1894.385"
   inkscape:export-ydpi="1894.385"><path
     id="XMLID_10417_"
     class="st12"
     d="M 30,22.1 31.9,9 c 0.2,-1.4 1.5,-2.3 2.8,-2.1 1.4,0.2 2.3,1.5 2.1,2.8 -2.2,16.6 -2.2,13.5 -2.2,22.3 0,5.7 -4.8,10.3 -10.6,9.9 -5.3,-0.3 -9.3,-5 -9.3,-10.3 v -7.2 c 0,-1.2 -0.2,-2.5 -0.6,-3.7 L 12,14.3 c -0.4,-1.2 0.2,-2.4 1.4,-2.9 1.2,-0.4 2.4,0.2 2.9,1.3 l 3.8,9.4 z"
     style="fill:#22c55e;fill-opacity:1"
     inkscape:export-filename="soth.svg"
     inkscape:export-xdpi="96"
     inkscape:export-ydpi="96" /><path
     class="st31"
     d="m 34,9.6 c 1.2,0 2.2,0.7 2.6,1.7 0.1,-0.5 0.1,-1 0.2,-1.6 C 37,8.3 36,7.1 34.7,6.9 33.3,6.7 32.1,7.7 31.9,9 l -0.3,1.8 C 32.2,10.1 33.1,9.6 34,9.6 Z"
     id="path1"
     style="fill:#4ade80;fill-opacity:1" /><path
     class="st31"
     d="m 12.6,16.1 c 0,-1.4 1.1,-2.4 2.4,-2.4 0.9,0 1.6,0.4 2.1,1.1 L 16.3,12.7 C 15.8,11.6 14.6,11 13.4,11.4 12.2,11.8 11.6,13.1 12,14.3 Z"
     id="path2"
     style="fill:#4ade80;fill-opacity:1" /><path
     id="XMLID_10416_"
     class="st2"
     d="M 30,22.1 31.9,9 c 0.2,-1.4 1.5,-2.3 2.8,-2.1 1.4,0.2 2.3,1.5 2.1,2.8 -2.2,16.6 -2.2,13.5 -2.2,22.3 0,5.7 -4.8,10.3 -10.6,9.9 -5.3,-0.3 -9.3,-5 -9.3,-10.3 v -7.2 c 0,-1.2 -0.2,-2.5 -0.6,-3.7 L 12,14.3 c -0.4,-1.2 0.2,-2.4 1.4,-2.9 1.2,-0.4 2.4,0.2 2.9,1.3 l 3.8,9.4 z"
     style="stroke:#334155;stroke-opacity:1" /><path
     id="XMLID_10415_"
     class="st12"
     d="m 22.7,19.4 v 0 c -1.5,0 -2.7,1.2 -2.7,2.7 v 5.6 c 0,1.5 1.2,2.7 2.7,2.7 v 0 c 1.5,0 2.7,-1.2 2.7,-2.7 v -5.6 c 0,-1.5 -1.2,-2.7 -2.7,-2.7 z"
     style="fill:#22c55e;fill-opacity:1" /><path
     id="XMLID_10414_"
     class="st31"
     d="m 22.7,19.4 v 0 c -1.5,0 -2.7,1.2 -2.7,2.7 v 2.4 c 0,-1.5 1.2,-2.7 2.7,-2.7 v 0 c 1.5,0 2.7,1.2 2.7,2.7 v -2.4 c 0,-1.5 -1.2,-2.7 -2.7,-2.7 z"
     style="fill:#4ade80;fill-opacity:1" /><path
     id="XMLID_10413_"
     class="st2"
     d="m 22.7,19.4 v 0 c -1.5,0 -2.7,1.2 -2.7,2.7 v 5.6 c 0,1.5 1.2,2.7 2.7,2.7 v 0 c 1.5,0 2.7,-1.2 2.7,-2.7 v -5.6 c 0,-1.5 -1.2,-2.7 -2.7,-2.7 z"
     style="stroke:#334155;stroke-opacity:1" /><path
     id="XMLID_10412_"
     class="st12"
     d="m 28,19.4 v 0 c -1.5,0 -2.7,1.2 -2.7,2.7 v 5.6 c 0,1.5 1.2,2.7 2.7,2.7 v 0 c 1.5,0 2.7,-1.2 2.7,-2.7 v -5.6 c 0,-1.5 -1.2,-2.7 -2.7,-2.7 z"
     style="fill:#22c55e;fill-opacity:1" /><path
     id="XMLID_10411_"
     class="st31"
     d="m 28,19.4 v 0 c -1.5,0 -2.7,1.2 -2.7,2.7 v 2.4 c 0,-1.5 1.2,-2.7 2.7,-2.7 v 0 c 1.5,0 2.7,1.2 2.7,2.7 v -2.4 c 0,-1.5 -1.2,-2.7 -2.7,-2.7 z"
     style="fill:#4ade80;fill-opacity:1" /><path
     id="XMLID_10410_"
     class="st2"
     d="m 28,19.4 v 0 c -1.5,0 -2.7,1.2 -2.7,2.7 v 5.6 c 0,1.5 1.2,2.7 2.7,2.7 v 0 c 1.5,0 2.7,-1.2 2.7,-2.7 v -5.6 c 0,-1.5 -1.2,-2.7 -2.7,-2.7 z"
     style="stroke:#334155;stroke-opacity:1" /><path
     id="XMLID_10409_"
     class="st12"
     d="m 34.7,31.8 c 0,-2.9 -2.3,-5.2 -5.2,-5.2 h -8.1 c -0.8,0 -1.4,0.6 -1.4,1.4 0,2.1 1.7,3.8 3.8,3.8 z"
     style="fill:#22c55e;fill-opacity:1" /><path
     id="XMLID_10408_"
     class="st31"
     d="m 34.7,31.8 c 0,-2.9 -2.3,-5.2 -5.2,-5.2 h -8.1 c -0.8,0 -1.4,0.6 -1.4,1.4 0,0.5 0.1,0.9 0.2,1.3 0.2,-0.4 0.7,-0.6 1.1,-0.6 h 8.5 c 2.3,-0.1 4.1,1.2 4.9,3.1 z"
     style="fill:#4ade80;fill-opacity:1" /><path
     id="XMLID_10407_"
     class="st2"
     d="m 23.39881,37.5 v -1.3 c 0,-2.5 2,-4.4 4.4,-4.4 h -4.1 c -2.1,0 -3.8,-1.7 -3.8,-3.8 0,-0.8 0.6,-1.4 1.4,-1.4 h 8.1 c 2.9,0 5.2,2.3 5.2,5.2"
     style="stroke:#334155;stroke-opacity:1" /></g></svg>
